<svg width="70" height="70" fill="none" xmlns="http://www.w3.org/2000/svg"><path d="M60 0H10C4.477 0 0 4.477 0 10v50c0 5.523 4.477 10 10 10h50c5.523 0 10-4.477 10-10V10c0-5.523-4.477-10-10-10z" fill="#F3FCF7"/><path d="M35 23.625a12.994 12.994 0 00-13 13v2.438a1.625 1.625 0 00.9 1.453l.73.365a5.687 5.687 0 005.684 5.494h1.217a1.22 1.22 0 001.219-1.219v-8.937A1.22 1.22 0 0030.531 35h-1.218a5.67 5.67 0 00-4.063 1.708v-.083a9.75 9.75 0 1119.5 0v.083A5.669 5.669 0 0040.688 35h-1.219a1.218 1.218 0 00-1.219 1.219v8.938a1.218 1.218 0 001.219 1.219h1.219a5.687 5.687 0 005.684-5.494l.73-.365a1.626 1.626 0 00.9-1.453v-2.439a12.993 12.993 0 00-13.002-13z" fill="#06C167"/></svg>