<svg width="70" height="70" fill="none" xmlns="http://www.w3.org/2000/svg"><path d="M60 0H10C4.477 0 0 4.477 0 10v50c0 5.523 4.477 10 10 10h50c5.523 0 10-4.477 10-10V10c0-5.523-4.477-10-10-10z" fill="#F3FCF7"/><path d="M30.548 30.55a3.25 3.25 0 10-4.6-4.592 3.25 3.25 0 004.6 4.592zm13 8.4a3.25 3.25 0 10-4.593 4.6 3.25 3.25 0 004.593-4.6zm-.1-11.752L42.3 26.05a1.624 1.624 0 00-2.3 0L26.051 40.003a1.624 1.624 0 000 2.3L27.2 43.45a1.624 1.624 0 002.3 0l13.949-13.953a1.624 1.624 0 000-2.3l-.001.001z" fill="#06C167"/></svg>