<svg width="70" height="70" fill="none" xmlns="http://www.w3.org/2000/svg"><path d="M60 0H10C4.477 0 0 4.477 0 10v50c0 5.523 4.477 10 10 10h50c5.523 0 10-4.477 10-10V10c0-5.523-4.477-10-10-10z" fill="#F3FCF7"/><path d="M50.438 39.875h-.812v-5.489a2.438 2.438 0 00-.716-1.721l-5.074-5.074a2.438 2.438 0 00-1.721-.716h-2.24v-2.437A2.438 2.438 0 0037.438 22h-16.25a2.438 2.438 0 00-2.438 2.438v16.25a2.438 2.438 0 002.438 2.438H22a4.875 4.875 0 109.75 0h6.5a4.875 4.875 0 109.75 0h2.438a.814.814 0 00.813-.812v-1.626a.815.815 0 00-.813-.813zm-23.563 5.688a2.438 2.438 0 110-4.877 2.438 2.438 0 010 4.877zm16.25 0a2.438 2.438 0 110-4.877 2.438 2.438 0 010 4.877zM47.188 35h-7.313v-5.687h2.239l5.073 5.073.001.614z" fill="#06C167"/></svg>