<svg width="70" height="70" fill="none" xmlns="http://www.w3.org/2000/svg"><path d="M60 0H10C4.477 0 0 4.477 0 10v50c0 5.523 4.477 10 10 10h50c5.523 0 10-4.477 10-10V10c0-5.523-4.477-10-10-10z" fill="#F3FCF7"/><path d="M45.42 28.875H26.063a.813.813 0 010-1.625h19.5a.813.813 0 00.813-.812 2.436 2.436 0 00-2.437-2.437H25.25A3.25 3.25 0 0022 27.25V43.5a3.25 3.25 0 003.25 3.25h20.17A2.514 2.514 0 0048 44.313v-13a2.514 2.514 0 00-2.58-2.438zm-2.3 10.563a1.625 1.625 0 11.005 0h-.005z" fill="#06C167"/></svg>