<svg width="120" height="39" fill="none" xmlns="http://www.w3.org/2000/svg"><path d="M2.557 31h3.511V20.852h9.886v-3.011H6.069V10.75h10.92V7.727H2.558V31zm24.548.352c4.92 0 8.137-3.602 8.137-9 0-5.431-3.216-9.034-8.137-9.034-4.92 0-8.136 3.603-8.136 9.034 0 5.398 3.216 9 8.136 9zm.011-2.852c-3.215 0-4.715-2.807-4.715-6.16 0-3.34 1.5-6.18 4.715-6.18 3.194 0 4.694 2.84 4.694 6.18 0 3.353-1.5 6.16-4.694 6.16zm19.27 2.852c4.92 0 8.137-3.602 8.137-9 0-5.431-3.216-9.034-8.137-9.034-4.92 0-8.136 3.603-8.136 9.034 0 5.398 3.216 9 8.136 9zm.012-2.852c-3.216 0-4.716-2.807-4.716-6.16 0-3.34 1.5-6.18 4.716-6.18 3.193 0 4.693 2.84 4.693 6.18 0 3.353-1.5 6.16-4.693 6.16zm18.451 2.84c3.182 0 4.432-1.942 5.046-3.056h.284V31h3.318V7.727H70.1v8.648h-.204c-.614-1.08-1.773-3.057-5.023-3.057-4.216 0-7.318 3.33-7.318 8.989 0 5.648 3.057 9.034 7.295 9.034zm.75-2.897c-3.034 0-4.613-2.67-4.613-6.17 0-3.466 1.545-6.069 4.613-6.069 2.966 0 4.557 2.421 4.557 6.069 0 3.67-1.625 6.17-4.557 6.17zM78.347 31h3.397V13.546h-3.397V31zm1.716-20.148c1.17 0 2.147-.909 2.147-2.022 0-1.114-.977-2.035-2.147-2.035-1.182 0-2.148.92-2.148 2.035 0 1.113.966 2.022 2.147 2.022zm13.775 20.5c3.807 0 6.5-1.875 7.273-4.716l-3.216-.58c-.614 1.648-2.091 2.49-4.023 2.49-2.909 0-4.864-1.887-4.954-5.25h12.409V22.09c0-6.307-3.773-8.773-7.728-8.773-4.863 0-8.068 3.705-8.068 9.068 0 5.42 3.16 8.966 8.307 8.966zM88.93 20.75c.136-2.477 1.932-4.625 4.693-4.625 2.636 0 4.364 1.954 4.375 4.625H88.93zm29.247-2.943c-.704-2.716-2.829-4.489-6.602-4.489-3.943 0-6.739 2.08-6.739 5.17 0 2.478 1.5 4.126 4.773 4.853l2.954.648c1.682.375 2.466 1.125 2.466 2.215 0 1.353-1.443 2.41-3.67 2.41-2.034 0-3.341-.875-3.75-2.591l-3.284.5c.568 3.09 3.136 4.83 7.057 4.83 4.216 0 7.136-2.24 7.136-5.399 0-2.465-1.568-3.988-4.773-4.727l-2.772-.636c-1.921-.455-2.75-1.102-2.739-2.284-.011-1.341 1.443-2.296 3.375-2.296 2.114 0 3.091 1.17 3.489 2.341l3.079-.545z" fill="#06C167"/></svg>