<svg width="156" height="36" fill="none" xmlns="http://www.w3.org/2000/svg"><path opacity=".55" d="M33.362 11.637c.453 0 .6.164.6.6V22.2h5.12c.44 0 .6.164.6.6v.887c0 .44-.164.6-.6.6h-6.739c-.44 0-.616-.164-.616-.6V12.241c0-.44.176-.6.616-.6l1.019-.004zm10.794 4.39c0-2.906 1.837-4.655 5.032-4.655 3.195 0 5.032 1.749 5.032 4.655v3.875c0 2.906-1.849 4.655-5.032 4.655s-5.032-1.75-5.032-4.656v-3.874zm7.951 0c0-1.635-1.019-2.516-2.856-2.516s-2.843.893-2.843 2.516v3.9c0 1.648 1.006 2.516 2.843 2.516s2.856-.906 2.856-2.516v-3.9zm17.097 1.333c.491 0 .6.164.6.6v2.39a3.775 3.775 0 01-1.33 2.972 5.485 5.485 0 01-3.774 1.183c-3.258 0-5.032-1.749-5.032-4.655v-3.9c0-2.868 1.837-4.629 5.032-4.629 2.516 0 4.151.994 4.843 2.981a.54.54 0 01-.377.78l-.981.34c-.428.151-.6.063-.755-.377a2.592 2.592 0 00-2.73-1.635c-1.849 0-2.856.893-2.856 2.516v4c0 1.648 1.019 2.516 2.856 2.516s2.969-.843 2.969-2.076v-.931h-2.731c-.453 0-.616-.176-.616-.616v-.855c0-.44.164-.6.616-.6l4.266-.004zm5.799-1.333c0-2.906 1.837-4.655 5.032-4.655 3.195 0 5.032 1.749 5.032 4.655v3.875c0 2.906-1.849 4.655-5.032 4.655s-5.032-1.749-5.032-4.655v-3.875zm7.938 0c0-1.635-1.019-2.516-2.843-2.516s-2.856.893-2.856 2.516v3.9c0 1.648 1.019 2.516 2.856 2.516s2.843-.906 2.843-2.516v-3.9zm8.051-4.025c0-.277.088-.365.365-.365h.579c.277 0 .34.088.34.365v11.926c0 .277 0 .365-.34.365h-.579c-.277 0-.365-.088-.365-.365V12.002zm12.747-.365a3.95 3.95 0 110 7.9h-3.777v4.39c0 .277-.063.365-.327.365h-.596c-.264 0-.365-.088-.365-.365V12.002c0-.277.1-.365.365-.365h4.7zm-.116 6.65a2.742 2.742 0 100-5.485h-3.774v5.485h3.774zm13.888-6.902a4.54 4.54 0 014.68 2.742c.1.2 0 .365-.2.465l-.554.252c-.226.088-.315.075-.453-.164a3.419 3.419 0 00-3.473-2.063c-2.126 0-3.283.843-3.283 2.352a1.913 1.913 0 001.6 1.937 8.54 8.54 0 002.088.4 8.65 8.65 0 012.516.516 2.83 2.83 0 011.963 2.981c0 2.352-1.711 3.774-4.856 3.774a4.543 4.543 0 01-4.821-3.048.342.342 0 01.083-.408.344.344 0 01.131-.07l.554-.2a.341.341 0 01.453.214 3.602 3.602 0 003.6 2.264c2.378 0 3.548-.83 3.548-2.516a1.878 1.878 0 00-1.472-1.925 8.816 8.816 0 00-2-.352l-1.359-.176a11.94 11.94 0 01-1.258-.34 3.308 3.308 0 01-1.12-.591 3.074 3.074 0 01-1.006-2.4c.085-2.21 1.733-3.644 4.639-3.644zm11.662 8.602a3.5 3.5 0 006.982 0v-7.985c0-.277.088-.365.365-.365h.579c.277 0 .365.088.365.365v7.976c0 2.856-1.686 4.579-4.793 4.579s-4.793-1.723-4.793-4.579v-7.976c0-.277.088-.365.352-.365h.591c.264 0 .352.088.352.365v7.985zm25.651-8.351c.277 0 .365.088.365.365v11.926c0 .277-.088.365-.365.365h-.528c-.264 0-.352-.088-.352-.365v-7.258c0-1.056.072-2.111.214-3.158h-.075a22.639 22.639 0 01-1.371 2.78l-2.7 4.768a.44.44 0 01-.415.277h-.352a.461.461 0 01-.428-.277l-2.742-4.818a20.303 20.303 0 01-1.258-2.742h-.075a27.53 27.53 0 01.2 3.183v7.246c0 .277-.088.365-.365.365h-.501c-.277 0-.365-.088-.365-.365V12.001c0-.277.088-.365.365-.365h.453a.501.501 0 01.5.289l4.4 7.825 4.378-7.749c.138-.264.214-.3.491-.3l.526-.065zM10.982 22.38v9.1a1.315 1.315 0 01-2.629 0v-9.087c.366.267.805.417 1.258.428.494.014.978-.141 1.371-.44v-.001zm11.2-2.629a1.258 1.258 0 00-1.258 1.258v1.585a1.315 1.315 0 002.629 0v-1.522a1.258 1.258 0 00-1.371-1.321zM5.5 25.827a2.264 2.264 0 01-1.26-.427v9.12a1.32 1.32 0 102.642 0v-9.058a2.3 2.3 0 01-1.384.365H5.5zm12.58-8.806a1.259 1.259 0 00-1.321 1.258v7.007a1.321 1.321 0 102.642 0v-6.919a1.259 1.259 0 00-1.384-1.321l.063-.025zm-4.18 2.692a2.3 2.3 0 01-1.321-.428v9.146a1.321 1.321 0 102.642 0V19.3a2.23 2.23 0 01-1.384.44l.063-.027zM2.642 26.72V1.17A1.183 1.183 0 001.459 0h-.276A1.183 1.183 0 000 1.17v25.55a1.182 1.182 0 001.183 1.18h.277a1.182 1.182 0 001.182-1.18zm2.994-1.862h-.277a1.183 1.183 0 01-1.183-1.183V4.214a1.183 1.183 0 011.183-1.17h.277a1.183 1.183 0 011.183 1.17V23.7a1.182 1.182 0 01-1.183 1.183v-.025zM9.8 21.864h-.289a1.17 1.17 0 01-1.17-1.17V7.234a1.17 1.17 0 011.17-1.183H9.8a1.183 1.183 0 011.17 1.183v13.46a1.17 1.17 0 01-1.17 1.17zm4.164-3.082H13.7a1.183 1.183 0 01-1.183-1.17v-7.246A1.182 1.182 0 0113.7 9.108h.277a1.182 1.182 0 011.183 1.183v7.3a1.183 1.183 0 01-1.183 1.2l-.013-.009zm4.177-2.7h-.277a1.183 1.183 0 01-1.183-1.183V13.02a1.183 1.183 0 011.183-1.17h.277a1.183 1.183 0 011.183 1.17v1.874a1.183 1.183 0 01-1.17 1.183l-.013.005z" fill="#394149"/></svg>