<svg width="149" height="30" fill="none" xmlns="http://www.w3.org/2000/svg"><path opacity=".55" d="M48.454 24.227a3.333 3.333 0 01-2.1-.6 1.962 1.962 0 01-.793-1.648V10.313a.326.326 0 01.365-.365h2.113c.239 0 .352.126.352.365v10.756c0 .478.214.717.654.717.187.008.374-.014.554-.063.252 0 .39.075.4.3l.191 1.57a.327.327 0 01-.3.39 4.736 4.736 0 01-1.436.244zm11.888-1.346a5.925 5.925 0 01-7.548 0 5.032 5.032 0 010-7.083 5.95 5.95 0 017.548 0 5.107 5.107 0 010 7.07v.013zm-5.56-1.664a2.68 2.68 0 003.6 0 2.818 2.818 0 000-3.7 2.68 2.68 0 00-3.6 0 2.818 2.818 0 000 3.7zm18.618-6.45c.239 0 .352.126.352.365v9.02a4.101 4.101 0 01-1.4 3.233 5.282 5.282 0 01-3.661 1.258 5.887 5.887 0 01-3.409-.944 3.774 3.774 0 01-1.648-2.516c0-.252 0-.365.34-.365h2.113a.466.466 0 01.415.289c.137.382.41.7.767.893.435.225.92.337 1.409.327a2.226 2.226 0 001.623-.579 2.136 2.136 0 00.591-1.573v-.793a4.214 4.214 0 01-2.617.818 4.879 4.879 0 01-3.573-1.371 5.032 5.032 0 010-6.995 4.919 4.919 0 013.573-1.359 4.227 4.227 0 012.68.868v-.2a.328.328 0 01.352-.365l2.093-.011zm-4.881 7.2a2.214 2.214 0 001.723-.742 3.081 3.081 0 000-3.774 2.2 2.2 0 00-1.711-.73 2.266 2.266 0 00-1.749.742 2.667 2.667 0 00-.679 1.887 2.717 2.717 0 00.664 1.872 2.277 2.277 0 001.749.742l.003.003zm16.09.913a5.95 5.95 0 01-7.548 0 5.12 5.12 0 010-7.083 5.963 5.963 0 017.548 0 5.107 5.107 0 010 7.07v.013zm-5.573-1.663a2.647 2.647 0 003.611 0 2.856 2.856 0 000-3.7 2.647 2.647 0 00-3.611 0 2.856 2.856 0 000 3.7zm11.535-8.589a1.824 1.824 0 01-2.4 0 1.52 1.52 0 010-2.214 1.862 1.862 0 012.4 0 1.522 1.522 0 010 2.214zm.264 11.6a3.383 3.383 0 01-2.1-.6 1.988 1.988 0 01-.78-1.648v-6.849a.326.326 0 01.365-.365h2.113c.239 0 .352.126.352.365v5.938c0 .478.214.717.642.717.19.007.381-.014.566-.063.252 0 .39.075.4.3l.189 1.573a.327.327 0 01-.3.39 4.761 4.761 0 01-1.446.241l-.001.001zm9.525-9.763a4.928 4.928 0 013.6 1.359 5.16 5.16 0 010 7.032 4.898 4.898 0 01-3.6 1.371 4.326 4.326 0 01-2.629-.818v4.541c0 .239-.126.352-.365.352h-2.114a.298.298 0 01-.344-.207.3.3 0 01-.008-.145V17.635a.654.654 0 00-.742-.742h-.415c-.277 0-.415-.1-.415-.3v-1.487a.4.4 0 01.289-.415 3.778 3.778 0 011.359-.226 2.327 2.327 0 012.276 1.253 4.24 4.24 0 013.107-1.258l.001.005zm-1.963 6.753a2.398 2.398 0 003.472 0 2.715 2.715 0 00.692-1.925 2.68 2.68 0 00-.692-1.925 2.394 2.394 0 00-1.736-.743 2.401 2.401 0 00-1.736.743 2.781 2.781 0 00-.667 1.925 2.818 2.818 0 00.667 1.925zm12.882 3.009a6.063 6.063 0 01-3.233-.78 3.073 3.073 0 01-1.459-2.227c0-.252.088-.377.365-.377h1.849a.482.482 0 01.415.277c.264.679.956 1.019 2.063 1.019.386.018.771-.06 1.12-.226a.728.728 0 00.428-.616c0-.327-.2-.554-.6-.7a6.813 6.813 0 00-1.472-.315 13.993 13.993 0 01-1.761-.315 2.89 2.89 0 01-1.472-.843 2.693 2.693 0 01.541-3.9 5.185 5.185 0 013.044-.805 5.561 5.561 0 012.969.742 2.801 2.801 0 011.384 1.975c0 .251-.113.377-.34.377h-1.866a.389.389 0 01-.377-.226 1.256 1.256 0 00-.654-.667 2.215 2.215 0 00-1.082-.252 2.193 2.193 0 00-1.069.214.633.633 0 00-.4.579.806.806 0 00.6.742 6.8 6.8 0 001.5.377 16.54 16.54 0 011.749.327 2.892 2.892 0 011.472.843 2.372 2.372 0 01.616 1.723 2.515 2.515 0 01-1.17 2.189 5.499 5.499 0 01-3.16.865zm17.625-.629a.344.344 0 01-.29.39 4.85 4.85 0 01-1.422.239 2.794 2.794 0 01-2.516-1.094 4.554 4.554 0 01-3.208 1.094 3.9 3.9 0 01-2.942-1.145 4.12 4.12 0 01-1.12-3.032v-4.918c0-.239.113-.365.352-.365h2.113c.239 0 .352.126.352.365v4.541c-.023.566.171 1.12.542 1.547a1.892 1.892 0 001.447.591 2.086 2.086 0 001.51-.554 2.008 2.008 0 00.566-1.5v-4.625c0-.239.113-.365.352-.365h2.139c.239 0 .352.126.352.365v5.925c0 .491.214.73.629.73.195.008.39-.014.579-.063a.327.327 0 01.281.05.34.34 0 01.1.11.332.332 0 01.038.141l.146 1.573zm19.985 0a.321.321 0 01-.057.264.301.301 0 01-.232.127 4.88 4.88 0 01-1.447.239 3.36 3.36 0 01-2.1-.6 1.965 1.965 0 01-.843-1.648v-2.962a2.223 2.223 0 00-.528-1.547 1.778 1.778 0 00-1.409-.591 1.574 1.574 0 00-1.258.554 2.237 2.237 0 00-.478 1.484v4.642c0 .239-.113.365-.352.365h-2.126a.33.33 0 01-.272-.093.327.327 0 01-.093-.272v-4.542a2.329 2.329 0 00-.491-1.547 1.645 1.645 0 00-1.258-.591 1.823 1.823 0 00-1.384.554c-.36.408-.545.94-.516 1.484v4.642c.006.05.001.1-.015.147a.33.33 0 01-.2.2.33.33 0 01-.147.015h-2.051c-.239 0-.352-.126-.352-.365v-5.922a.653.653 0 00-.742-.743h-.415c-.277 0-.415-.1-.415-.3v-1.486a.398.398 0 01.289-.415 3.777 3.777 0 011.359-.226 2.367 2.367 0 012.239 1.157 4.257 4.257 0 013.2-1.157 3.609 3.609 0 012.981 1.333 4.15 4.15 0 013.3-1.333 3.977 3.977 0 012.982 1.145 4.117 4.117 0 011.12 3.032v2.428c0 .478.214.717.616.717.195.01.39-.012.579-.063.261 0 .399.1.415.3l.101 1.574zM1.379 13.131a17.222 17.222 0 0133.425 0h-1.51a12.191 12.191 0 00-7.131 2.176c-.12.087-.247.167-.377.239h-.176a3.598 3.598 0 01-.377-.239 12.794 12.794 0 00-14.278 0c-.12.087-.246.167-.377.239h-.176a3.598 3.598 0 01-.377-.239 12.19 12.19 0 00-7.133-2.176H1.379zm29.2 7.888a4.24 4.24 0 012.717-.893h2.025v-4.039h-2.026a8.027 8.027 0 00-4.818 1.535 4.58 4.58 0 01-5.435 0 8.554 8.554 0 00-9.775 0 4.58 4.58 0 01-5.435 0 8.026 8.026 0 00-4.881-1.535H.863v4.038h2.025a4.24 4.24 0 012.717.893 8.53 8.53 0 009.762 0 4.265 4.265 0 012.717-.893 4.214 4.214 0 012.717.893 8.554 8.554 0 009.775 0l.003.001zm0 7.221a4.24 4.24 0 012.717-.893h2.025v-4.039h-2.026a8.027 8.027 0 00-4.818 1.535 4.58 4.58 0 01-5.435 0 8.555 8.555 0 00-9.775 0 4.58 4.58 0 01-5.435 0 8.027 8.027 0 00-4.881-1.535H.863v4.039h2.025a4.24 4.24 0 012.717.893 8.53 8.53 0 009.762 0 4.265 4.265 0 012.717-.893 4.214 4.214 0 012.717.893 8.554 8.554 0 009.775 0h.003z" fill="#394149"/></svg>