<svg width="151" height="35" fill="none" xmlns="http://www.w3.org/2000/svg"><path opacity=".55" d="M43.851 10.334h3.774v15.26h-3.774v-15.26zm5.271 9.5c0-3.774 2.315-6.026 5.888-6.026s5.888 2.252 5.888 6.026-2.264 6.038-5.888 6.038-5.888-2.203-5.888-6.039v.001zm7.988 0c0-2.076-.818-3.3-2.1-3.3s-2.088 1.258-2.088 3.3.793 3.271 2.088 3.271 2.1-1.157 2.1-3.258v-.013zm5.208 6.5h3.623a1.95 1.95 0 002.04 1.135c1.434 0 2.189-.78 2.189-1.912v-2.114h-.075a3.573 3.573 0 01-3.434 2.063c-2.755 0-4.579-2.1-4.579-5.711s1.736-5.888 4.63-5.888a3.61 3.61 0 013.469 2.214v-2.1h3.774v11.447c0 2.755-2.428 4.466-6.013 4.466-3.334 0-5.409-1.5-5.623-3.585l-.001-.015zm7.863-6.514c0-1.837-.843-2.994-2.176-2.994-1.333 0-2.151 1.145-2.151 2.994 0 1.849.805 2.893 2.151 2.893 1.346 0 2.176-1.019 2.176-2.88v-.013zm5.2 0c0-3.774 2.315-6.026 5.888-6.026s5.9 2.252 5.9 6.026-2.264 6.038-5.9 6.038c-3.636 0-5.888-2.189-5.888-6.025v-.013zm7.988 0c0-2.076-.818-3.3-2.1-3.3s-2.025 1.271-2.025 3.321c0 2.05.793 3.271 2.076 3.271s2.051-1.17 2.051-3.271l-.002-.021zm5.233-8.542a1.925 1.925 0 111.959 1.875 1.836 1.836 0 01-1.963-1.849l.004-.026zm0 2.768h3.774v11.548h-3.777l.003-11.548zm17.474 5.774c0 3.774-1.673 5.925-4.541 5.925a3.602 3.602 0 01-3.522-2.139h-.075v5.687h-3.779V14.02h3.774v2.063h.075a3.61 3.61 0 013.5-2.227c2.893.05 4.617 2.214 4.617 5.988l-.049-.024zm-3.774 0c0-1.837-.843-3.007-2.164-3.007-1.321 0-2.164 1.183-2.176 3.007-.012 1.824.855 2.994 2.176 2.994 1.321 0 2.164-1.145 2.164-2.969v-.025zm10.253-6.038c3.132 0 5.032 1.484 5.12 3.862h-3.434c0-.818-.679-1.333-1.723-1.333s-1.51.4-1.51.994.415.78 1.258.956l2.415.491c2.3.491 3.283 1.422 3.283 3.17 0 2.39-2.176 3.925-5.384 3.925s-5.309-1.535-5.472-3.887h3.636c.113.855.793 1.359 1.9 1.359 1.107 0 1.61-.365 1.61-.969s-.352-.73-1.258-.918l-2.176-.465c-2.252-.465-3.434-1.661-3.434-3.422.025-2.264 2.051-3.736 5.17-3.736l-.001-.027zm18 11.788h-3.636v-2.152h-.076a3.28 3.28 0 01-3.346 2.4 4.013 4.013 0 01-4.227-4.34v-7.46h3.774v6.592c0 1.371.7 2.1 1.874 2.1a1.927 1.927 0 001.845-1.365c.08-.263.103-.539.067-.811V14.02h3.774l-.049 11.55zm1.826-11.55h3.648v2.227h.075a3.346 3.346 0 013.283-2.441 3.008 3.008 0 013.208 2.516h.075a3.553 3.553 0 013.548-2.516 3.657 3.657 0 013.566 2.415c.175.483.246.998.208 1.51v7.863h-3.774v-6.856c0-1.258-.566-1.837-1.623-1.837a1.644 1.644 0 00-1.59 1.165 1.642 1.642 0 00-.058.697v6.831h-3.585v-6.906c0-1.157-.566-1.786-1.6-1.786a1.685 1.685 0 00-1.673 1.887v6.806h-3.774l.066-11.575zm-99.084-2.994a16.662 16.662 0 00-2.516-4.051A17.02 17.02 0 00.616 19.019a17.021 17.021 0 006.665 12.256 16.466 16.466 0 004.026 2.3c2.024.83 4.19 1.257 6.378 1.258a17.059 17.059 0 0017.021-17.04 16.844 16.844 0 00-1.409-6.768v.001zM17.672 4.193c1.965 0 3.905.43 5.686 1.26a5.521 5.521 0 01-1.359.39 7.21 7.21 0 00-6.1 6.1 3.774 3.774 0 01-3.409 3.334 7.21 7.21 0 00-6.1 6.1 3.66 3.66 0 01-.994 2.189 13.587 13.587 0 0112.291-19.4l-.015.027zM7.268 26.601c.151-.138.3-.264.453-.415a6.894 6.894 0 002.038-4.063c.081-.87.469-1.68 1.094-2.29a3.562 3.562 0 012.277-1.082 7.209 7.209 0 006.1-6.1 3.674 3.674 0 011.094-2.4 3.611 3.611 0 012.3-1.044 6.894 6.894 0 003.782-1.804 13.22 13.22 0 012.969 3.5 1.077 1.077 0 01-.164.176 3.61 3.61 0 01-2.277 1.107 7.184 7.184 0 00-6.1 6.1 3.774 3.774 0 01-3.384 3.371 7.246 7.246 0 00-6.139 6.1 3.95 3.95 0 01-.616 1.723 13.702 13.702 0 01-3.422-2.881l-.005.002zm10.4 4.856a13.636 13.636 0 01-3.774-.528 7.25 7.25 0 00.805-2.516 3.774 3.774 0 013.371-3.371 7.208 7.208 0 006.114-6.1 3.774 3.774 0 013.371-3.371 7.183 7.183 0 003.221-1.258 13.612 13.612 0 01-13.104 17.08l-.004.064z" fill="#394149"/></svg>